<?xml version="1.0" encoding="UTF-8" standalone="no"?>
<svg width="22px" height="22px" viewBox="0 0 22 22" version="1.1" xmlns="http://www.w3.org/2000/svg" xmlns:xlink="http://www.w3.org/1999/xlink">
    <!-- Generator: Sketch 50.2 (55047) - http://www.bohemiancoding.com/sketch -->
    <title>button__launchFullPlayer</title>
    <desc>Created with Sketch.</desc>
    <defs>
        <polygon id="path-1" points="0 0 22 0 22 22 0 22"></polygon>
    </defs>
    <g id="Fina-Designs-17th-June-2018" stroke="none" stroke-width="1" fill="none" fill-rule="evenodd">
        <g id="mainPlayer-desktop-wide-view" transform="translate(-1092.000000, -560.000000)">
            <g id="FullPlayer" transform="translate(1092.000000, 560.000000)">
                <g id="button/launchFullPlayer">
                    <g id="Page-1-Copy">
                        <mask id="mask-2" fill="white">
                            <use xlink:href="#path-1"></use>
                        </mask>
                        <g id="Clip-2"></g>
                        <path d="M13.9088889,-8.8817842e-16 L13.9088889,2 L18,2 L5.81777778,14.4588889 L7.54111111,16.1822222 L20,4 L20,8.55555556 L22,8.55555556 L22,-8.8817842e-16 L13.9088889,-8.8817842e-16 Z M20,20 L2,20 L2,2 L11,2 L11,9.76481501e-15 C3.66666667,2.66281939e-15 8.8817842e-16,-8.8817842e-16 8.8817842e-16,-8.8817842e-16 C8.8817842e-16,15 8.8817842e-16,22.3333333 8.8817842e-16,22 C14.6666667,22 22,22 22,22 L22,11 L20,11.0054348 L20,20 Z" id="Fill-1" fill="#FFFFFF" mask="url(#mask-2)"></path>
                    </g>
                </g>
            </g>
        </g>
    </g>
</svg>