<?xml version="1.0" encoding="UTF-8" standalone="no"?>
<svg
   xmlns:dc="http://purl.org/dc/elements/1.1/"
   xmlns:cc="http://creativecommons.org/ns#"
   xmlns:rdf="http://www.w3.org/1999/02/22-rdf-syntax-ns#"
   xmlns:svg="http://www.w3.org/2000/svg"
   xmlns="http://www.w3.org/2000/svg"
   id="svg3927"
   version="1.1"
   viewBox="0 0 30 30"
   height="30"
   width="30">
  <metadata
     id="metadata3964">
    <rdf:RDF>
      <cc:Work
         rdf:about="">
        <dc:format>image/svg+xml</dc:format>
        <dc:type
           rdf:resource="http://purl.org/dc/dcmitype/StillImage" />
        <dc:title>SettingsIcon</dc:title>
      </cc:Work>
    </rdf:RDF>
  </metadata>
  <!-- Generator: Sketch 51.1 (57501) - http://www.bohemiancoding.com/sketch -->
  <title
     id="title3929">SettingsIcon</title>
  <desc
     id="desc3931">Created with Sketch.</desc>
  <defs
     id="defs3933" />
  <g
     transform="translate(3.4397792,3.9999997)"
     style="fill:#ffffff;fill-rule:evenodd;stroke:none;stroke-width:1"
     id="Page-1">
    <g
       style="fill:#ffffff"
       transform="translate(-142,-20)"
       id="BritishLibraryIcons">
      <g
         style="fill:#ffffff"
         transform="translate(142,20)"
         id="SettingsIcon">
        <ellipse
           style="fill:#ffffff;stroke:#ffffff;stroke-width:2.03461528"
           ry="8.2458506"
           rx="8.2309437"
           cy="11"
           cx="11.560315"
           id="Oval-12" />
        <rect
           style="fill:#ffffff"
           height="3.4736843"
           width="2.312063"
           y="0"
           x="10.404284"
           id="Rectangle-44" />
        <rect
           style="fill:#ffffff"
           height="3.4736843"
           width="2.312063"
           y="1.2410278"
           x="15.028409"
           transform="matrix(0.8660254,0.5,-0.5,0.8660254,3.6572389,-7.6932616)"
           id="rect3940" />
        <rect
           style="fill:#ffffff"
           height="3.4736843"
           width="2.312063"
           y="4.6315789"
           x="18.413504"
           transform="matrix(0.5,0.8660254,-0.8660254,0.5,15.299982,-13.763505)"
           id="rect3942" />
        <rect
           style="fill:#ffffff"
           height="3.4736843"
           width="2.312063"
           y="9.2631578"
           x="19.652534"
           transform="matrix(0,1,-1,0,31.808566,-9.808566)"
           id="rect3944" />
        <rect
           style="fill:#ffffff"
           height="3.4736843"
           width="2.312063"
           y="13.894737"
           x="18.413504"
           transform="matrix(-0.5,0.8660254,-0.8660254,-0.5,42.891649,6.4996532)"
           id="rect3946" />
        <rect
           style="fill:#ffffff"
           height="3.4736843"
           width="2.312063"
           y="17.285288"
           x="15.028409"
           transform="matrix(-0.8660254,0.5,-0.5,-0.8660254,39.711643,27.403557)"
           id="rect3948" />
        <rect
           style="fill:#ffffff"
           height="3.4736843"
           width="2.312063"
           y="18.526316"
           x="10.404284"
           transform="matrix(-1,0,0,-1,23.12063,40.526316)"
           id="rect3950" />
        <rect
           style="fill:#ffffff"
           height="3.4736843"
           width="2.312063"
           y="17.285288"
           x="5.7801576"
           transform="matrix(-0.8660254,-0.5,0.5,-0.8660254,3.4320399,38.963872)"
           id="rect3952" />
        <rect
           style="fill:#ffffff"
           height="3.4736843"
           width="2.312063"
           y="13.894737"
           x="2.3950622"
           transform="matrix(-0.5,-0.8660254,0.8660254,-0.5,-8.2107035,26.522706)"
           id="rect3954" />
        <rect
           style="fill:#ffffff"
           height="3.4736843"
           width="2.312063"
           y="9.2631578"
           x="1.1560315"
           transform="matrix(0,-1,1,0,-8.687937,13.312063)"
           id="rect3956" />
        <rect
           style="fill:#ffffff"
           height="3.4736843"
           width="2.312063"
           y="4.6315789"
           x="2.3950622"
           transform="matrix(0.5,-0.8660254,0.8660254,0.5,-3.7396674,6.2595481)"
           id="rect3958" />
        <rect
           style="fill:#ffffff"
           height="3.4736843"
           width="2.312063"
           y="1.2410278"
           x="5.7801576"
           transform="matrix(0.8660254,-0.5,0.5,0.8660254,-0.55966188,3.8670534)"
           id="rect3960" />
      </g>
    </g>
  </g>
</svg>
