<?xml version="1.0" encoding="UTF-8" standalone="no"?>
<svg
   xmlns:dc="http://purl.org/dc/elements/1.1/"
   xmlns:cc="http://creativecommons.org/ns#"
   xmlns:rdf="http://www.w3.org/1999/02/22-rdf-syntax-ns#"
   xmlns:svg="http://www.w3.org/2000/svg"
   xmlns="http://www.w3.org/2000/svg"
   id="svg4185"
   version="1.1"
   viewBox="0 0 30 30"
   height="30"
   width="30">
  <metadata
     id="metadata4200">
    <rdf:RDF>
      <cc:Work
         rdf:about="">
        <dc:format>image/svg+xml</dc:format>
        <dc:type
           rdf:resource="http://purl.org/dc/dcmitype/StillImage" />
        <dc:title>button__volume</dc:title>
      </cc:Work>
    </rdf:RDF>
  </metadata>
  <!-- Generator: Sketch 50.2 (55047) - http://www.bohemiancoding.com/sketch -->
  <title
     id="title4187">button__volume</title>
  <desc
     id="desc4189">Created with Sketch.</desc>
  <defs
     id="defs4191" />
  <g
     transform="matrix(1.0728067,0,0,1.0728067,3.6665,4.0000002)"
     style="fill:#ffffff;fill-rule:evenodd;stroke:none;stroke-width:1"
     id="Fina-Designs-17th-June-2018">
    <g
       style="fill:#ffffff"
       transform="translate(-505,-560)"
       id="mainPlayer-desktop-wide-view">
      <g
         style="fill:#ffffff"
         transform="translate(505,560)"
         id="VolumeControl">
        <g
           style="fill:#ffffff"
           id="button/volume">
          <path
             style="fill:#ffffff"
             id="Page-1"
             d="m 12.911725,0 0,2.4084566 c 3.392262,1.0054722 5.868966,4.138804 5.868966,7.8450214 0,3.706217 -2.476704,6.839549 -5.868966,7.845021 l 0,2.408457 c 4.706911,-1.06393 8.216552,-5.2495 8.216552,-10.253478 C 21.128277,5.2495001 17.618636,1.0639299 12.911725,0 Z m 2.934483,10.253478 c 0,-2.0694022 -1.197269,-3.8465158 -2.934483,-4.7116895 l 0,9.4116875 c 1.737214,-0.853482 2.934483,-2.630596 2.934483,-4.699998 z M 0,6.7460168 l 0,7.0149222 4.6951727,0 5.8689663,5.845768 0,-18.70645866 L 4.6951727,6.7460168 0,6.7460168 Z" />
        </g>
      </g>
    </g>
  </g>
</svg>
